<?xml version="1.0" encoding="UTF-8"?>
<!DOCTYPE svg PUBLIC "-//W3C//DTD SVG 1.1//EN" "http://www.w3.org/Graphics/SVG/1.1/DTD/svg11.dtd">
<!-- Creator: CorelDRAW X7 -->
<svg xmlns="http://www.w3.org/2000/svg" xml:space="preserve" width="160mm" height="60mm" version="1.1" style="shape-rendering:geometricPrecision; text-rendering:geometricPrecision; image-rendering:optimizeQuality; fill-rule:evenodd; clip-rule:evenodd"
viewBox="0 0 16000 6000"
 xmlns:xlink="http://www.w3.org/1999/xlink">
 <defs>
  <style type="text/css">
   <![CDATA[
    .fil2 {fill:#0995DA}
    .fil3 {fill:#137CC5}
    .fil4 {fill:#1B68B3}
    .fil1 {fill:#2352A0}
    .fil0 {fill:#5171FF}
   ]]>
  </style>
 </defs>
 <g id="Layer_x0020_1">
  <metadata id="CorelCorpID_0Corel-Layer"/>
  <path class="fil0" d="M12052 3032l-3 66c-47,-41 -34,-50 -72,-93 -28,-30 -62,-52 -96,-77 -481,-324 -1326,-37 -1308,929 19,1050 991,1271 1417,834 30,-30 59,-75 89,-91l0 241 519 -2 0 -2736 -546 -2 0 931zm-246 1130l9 -9c178,-178 178,-467 0,-645 -178,-177 -467,-177 -645,0l-9 10c-178,180 -178,467 0,644 178,178 467,178 645,0z"/>
  <path class="fil0" d="M4952 3934l-554 0c14,401 137,570 358,738 647,490 2175,235 1936,-838 -128,-578 -923,-583 -1408,-774 -351,-137 -237,-492 107,-549 226,-37 488,7 595,209 22,46 22,55 34,103 32,141 -21,98 601,98 -27,-715 -658,-957 -1282,-875 -754,100 -1037,754 -734,1212 312,474 1285,383 1486,699 246,392 -508,665 -950,346 -82,-59 -128,-159 -146,-264 -18,-102 -14,-86 -43,-105z"/>
  <path class="fil0" d="M8371 4046c0,406 89,715 426,816 173,50 391,50 555,-7 85,-28 142,-62 201,-110 91,-68 73,-79 134,-143 25,-25 5,-7 32,-30l0 260c116,20 399,16 522,4l0 -1972c-135,-18 -401,-9 -547,-7l0 1018c0,381 -116,656 -512,583 -117,-20 -171,-73 -212,-166 -89,-210 -50,-1139 -53,-1430l-546 -5 0 1189z"/>
  <path class="fil0" d="M14528 4841l583 0 667 -1979 -544 -5 -412 1351c-69,-110 -422,-1315 -429,-1351l-571 0c29,139 273,806 339,1005l321 933c23,41 7,28 46,46z"/>
  <path class="fil0" d="M7161 2850l-330 7 0 360 330 7c0,300 -55,1259 71,1448 100,149 328,199 556,194 59,0 118,-4 177,-7 182,-7 146,39 144,-430 -492,-5 -401,132 -401,-1201l401 -9 0 -357 -399 -7 -2 -593 -542 0 -5 588z"/>
  <polygon class="fil0" points="13027,3169 13027,3479 13027,4841 13512,4841 13573,4834 13573,2866 13512,2855 13027,2857 "/>
  <path class="fil1" d="M1068 4288c159,27 328,-26 485,0l0 -1180 -171 2 -314 1178z"/>
  <path class="fil2" d="M2227 4290c37,-28 23,16 62,-137 13,-52 27,-100 41,-150l239 -893 -478 -2c-3,389 9,813 -16,1175l152 7z"/>
  <path class="fil3" d="M1553 4288c-157,-26 -326,27 -485,0l-9 4 1168 -2 -152 -7c25,-362 13,-786 16,-1175l-292 0 -11 1143c-3,-2 -5,9 -5,18l-230 19z"/>
  <path class="fil2" d="M526 5121l291 0c62,-36 110,-321 130,-401 36,-130 91,-298 112,-428l-533 0 0 829z"/>
  <polygon class="fil1" points="2569,3110 3088,3108 3093,2281 2792,2283 "/>
  <polygon class="fil1" points="526,5121 526,4292 227,4292 9,5119 "/>
  <path class="fil4" d="M1553 4288l230 -19c0,-9 2,-20 5,-18l11 -1143 -246 0 0 1180z"/>
  <polygon class="fil0" points="13027,2549 13514,2549 13573,2545 13573,2110 13512,2098 13027,2101 "/>
  <polygon class="fil4" points="3785,1292 3785,713 3457,711 3307,1292 "/>
  <path class="fil4" d="M2214 2249c31,34 4,18 63,34 0,0 48,5 53,5l325 -26 0 -562 -289 -2 -152 551z"/>
  <polygon class="fil3" points="1072,3108 1382,3110 1535,2529 952,2534 1136,2552 1136,3076 "/>
  <polygon class="fil3" points="3088,3108 3243,3108 3307,3076 3307,2281 3093,2281 "/>
  <polygon class="fil2" points="3243,3108 3396,3108 3619,2281 3307,2281 3307,3076 "/>
  <polygon class="fil3" points="3619,2281 4027,2278 4138,1875 3740,1873 "/>
  <polygon class="fil3" points="4043,713 4444,711 4560,313 4152,306 "/>
  <polygon class="fil1" points="1072,3108 1136,3076 1136,2552 952,2534 799,3108 "/>
  <path class="fil2" d="M2214 2249c9,54 -16,18 31,29 21,5 78,3 101,3l446 2 155 -581 -292 -2 0 562 -325 26c-5,0 -53,-5 -53,-5 -59,-16 -32,0 -63,-34z"/>
  <path class="fil3" d="M2170 1700l196 -2 107 -401c-107,-9 -319,-32 -401,9l101 9 -3 385z"/>
  <path class="fil2" d="M3785 1292l91 2c3,-4 7,-16 7,-13 2,2 7,-9 7,-12l150 -556 -255 0 0 579z"/>
  <polygon class="fil1" points="2170,1700 2173,1315 2072,1306 1958,1700 "/>
 </g>
</svg>
