<svg xmlns="http://www.w3.org/2000/svg" xmlns:xlink="http://www.w3.org/1999/xlink" width="500" zoomAndPan="magnify" viewBox="0 0 375 374.999991" height="500" preserveAspectRatio="xMidYMid meet" version="1.2"><defs><clipPath id="85ef0f0d5c"><path d="M 12.5 52 L 76 52 L 76 183 L 12.5 183 Z M 12.5 52 "/></clipPath><clipPath id="36309f1fae"><path d="M 299 52 L 362.75 52 L 362.75 183 L 299 183 Z M 299 52 "/></clipPath><clipPath id="8f2b3064a3"><path d="M 34 18.546875 L 341 18.546875 L 341 368.796875 L 34 368.796875 Z M 34 18.546875 "/></clipPath><clipPath id="9f1401f3f3"><path d="M 12.5 52 L 76 52 L 76 183 L 12.5 183 Z M 12.5 52 "/></clipPath><clipPath id="3b4d33cb59"><path d="M 299 52 L 362.75 52 L 362.75 183 L 299 183 Z M 299 52 "/></clipPath><clipPath id="05595e0d6f"><path d="M 34 18.546875 L 341 18.546875 L 341 368.796875 L 34 368.796875 Z M 34 18.546875 "/></clipPath></defs><g id="6c4922870c"><g clip-rule="nonzero" clip-path="url(#85ef0f0d5c)"><path style=" stroke:none;fill-rule:nonzero;fill:#004aad;fill-opacity:1;" d="M 71.605469 55.648438 C 67.078125 51.644531 60.164062 52.039062 56.160156 56.566406 C 28.007812 88.351562 12.5 129.234375 12.5 171.671875 C 12.5 177.707031 17.398438 182.605469 23.4375 182.605469 C 29.476562 182.605469 34.375 177.707031 34.375 171.671875 C 34.375 134.570312 47.914062 98.851562 72.523438 71.070312 C 76.546875 66.5625 76.109375 59.652344 71.605469 55.648438 Z M 71.605469 55.648438 "/></g><g clip-rule="nonzero" clip-path="url(#36309f1fae)"><path style=" stroke:none;fill-rule:nonzero;fill:#004aad;fill-opacity:1;" d="M 318.832031 56.566406 C 314.828125 52.039062 307.914062 51.621094 303.386719 55.648438 C 298.882812 59.652344 298.445312 66.5625 302.46875 71.089844 C 327.078125 98.851562 340.617188 134.570312 340.617188 171.671875 C 340.617188 177.707031 345.515625 182.605469 351.554688 182.605469 C 357.59375 182.605469 362.492188 177.707031 362.492188 171.671875 C 362.492188 129.234375 346.984375 88.351562 318.832031 56.566406 Z M 318.832031 56.566406 "/></g><g clip-rule="nonzero" clip-path="url(#8f2b3064a3)"><path style=" stroke:none;fill-rule:nonzero;fill:#004aad;fill-opacity:1;" d="M 334.582031 282.203125 C 311.328125 270.566406 296.867188 247.203125 296.867188 221.195312 L 296.867188 171.671875 C 296.867188 122.867188 264.515625 81.917969 220.308594 67.875 L 220.308594 51.359375 C 220.308594 33.269531 205.585938 18.546875 187.496094 18.546875 C 169.40625 18.546875 154.683594 33.269531 154.683594 51.359375 L 154.683594 67.875 C 110.476562 81.917969 78.125 122.867188 78.125 171.671875 L 78.125 221.195312 C 78.125 247.179688 63.664062 270.566406 40.410156 282.203125 C 36.429688 284.191406 34.046875 288.414062 34.394531 292.855469 C 34.746094 297.296875 37.765625 301.078125 42.007812 302.4375 C 75.476562 312.980469 109.621094 319.605469 143.945312 322.734375 C 143.921875 323.414062 143.746094 324.089844 143.746094 324.792969 C 143.746094 348.917969 163.367188 368.539062 187.496094 368.539062 C 211.625 368.539062 231.246094 348.917969 231.246094 324.792969 C 231.246094 324.089844 231.070312 323.414062 231.046875 322.714844 C 265.371094 319.585938 299.515625 312.957031 332.984375 302.414062 C 337.226562 301.058594 340.246094 297.296875 340.597656 292.832031 C 340.945312 288.371094 338.5625 284.191406 334.582031 282.203125 Z M 334.582031 282.203125 "/></g><g clip-rule="nonzero" clip-path="url(#9f1401f3f3)"><path style=" stroke:none;fill-rule:nonzero;fill:#004aad;fill-opacity:1;" d="M 71.605469 55.648438 C 67.078125 51.644531 60.164062 52.039062 56.160156 56.566406 C 28.007812 88.351562 12.5 129.234375 12.5 171.671875 C 12.5 177.707031 17.398438 182.605469 23.4375 182.605469 C 29.476562 182.605469 34.375 177.707031 34.375 171.671875 C 34.375 134.570312 47.914062 98.851562 72.523438 71.070312 C 76.546875 66.5625 76.109375 59.652344 71.605469 55.648438 Z M 71.605469 55.648438 "/></g><g clip-rule="nonzero" clip-path="url(#3b4d33cb59)"><path style=" stroke:none;fill-rule:nonzero;fill:#004aad;fill-opacity:1;" d="M 318.832031 56.566406 C 314.828125 52.039062 307.914062 51.621094 303.386719 55.648438 C 298.882812 59.652344 298.445312 66.5625 302.46875 71.089844 C 327.078125 98.851562 340.617188 134.570312 340.617188 171.671875 C 340.617188 177.707031 345.515625 182.605469 351.554688 182.605469 C 357.59375 182.605469 362.492188 177.707031 362.492188 171.671875 C 362.492188 129.234375 346.984375 88.351562 318.832031 56.566406 Z M 318.832031 56.566406 "/></g><g clip-rule="nonzero" clip-path="url(#05595e0d6f)"><path style=" stroke:none;fill-rule:nonzero;fill:#004aad;fill-opacity:1;" d="M 334.582031 282.203125 C 311.328125 270.566406 296.867188 247.203125 296.867188 221.195312 L 296.867188 171.671875 C 296.867188 122.867188 264.515625 81.917969 220.308594 67.875 L 220.308594 51.359375 C 220.308594 33.269531 205.585938 18.546875 187.496094 18.546875 C 169.40625 18.546875 154.683594 33.269531 154.683594 51.359375 L 154.683594 67.875 C 110.476562 81.917969 78.125 122.867188 78.125 171.671875 L 78.125 221.195312 C 78.125 247.179688 63.664062 270.566406 40.410156 282.203125 C 36.429688 284.191406 34.046875 288.414062 34.394531 292.855469 C 34.746094 297.296875 37.765625 301.078125 42.007812 302.4375 C 75.476562 312.980469 109.621094 319.605469 143.945312 322.734375 C 143.921875 323.414062 143.746094 324.089844 143.746094 324.792969 C 143.746094 348.917969 163.367188 368.539062 187.496094 368.539062 C 211.625 368.539062 231.246094 348.917969 231.246094 324.792969 C 231.246094 324.089844 231.070312 323.414062 231.046875 322.714844 C 265.371094 319.585938 299.515625 312.957031 332.984375 302.414062 C 337.226562 301.058594 340.246094 297.296875 340.597656 292.832031 C 340.945312 288.371094 338.5625 284.191406 334.582031 282.203125 Z M 334.582031 282.203125 "/></g></g></svg>